<svg width="32" height="32" viewBox="0 0 32 32" fill="none" xmlns="http://www.w3.org/2000/svg">
    <circle cx="16" cy="16" r="14" fill="#00A86B" />
    <path d="M16 22C13.8 20.6 12.1 19.2 10.9 17.8C9.7 16.4 9.1 15.1 9.1 13.9C9.1 12.3 9.6 11 10.6 10C11.6 9 12.8 8.5 14.2 8.5C15 8.5 15.8 8.7 16.5 9.1C17.2 9.5 17.8 10 18.2 10.7C18.6 10 19.2 9.5 19.9 9.1C20.6 8.7 21.4 8.5 22.2 8.5C23.6 8.5 24.8 9 25.8 10C26.8 11 27.3 12.3 27.3 13.9C27.3 15.1 26.7 16.4 25.5 17.8C24.3 19.2 22.6 20.6 20.4 22L16 25L16 22Z" fill="white"/>
</svg>